<svg xmlns="http://www.w3.org/2000/svg" width="198" height="40" fill="none"><g clip-path="url(#a)"><path fill="#fff" d="M46.152 22.5h-3.398V8.695c0-.96.187-1.77.562-2.425a3.678 3.678 0 0 1 1.606-1.5c.695-.344 1.52-.516 2.473-.516.312 0 .613.023.902.07.289.04.57.09.844.153l-.035 2.543a2.933 2.933 0 0 0-.47-.082 6.144 6.144 0 0 0-.574-.024c-.406 0-.753.07-1.042.211a1.407 1.407 0 0 0-.645.598c-.148.265-.223.59-.223.972V22.5Zm2.532-12.68v2.39h-7.817V9.82h7.817Zm1.23 6.47v-.247c0-.93.133-1.785.398-2.566a5.936 5.936 0 0 1 1.16-2.051 5.199 5.199 0 0 1 1.876-1.348c.742-.328 1.593-.492 2.554-.492.961 0 1.817.164 2.567.492.75.32 1.379.77 1.886 1.348a5.838 5.838 0 0 1 1.172 2.05c.266.782.399 1.637.399 2.567v.246c0 .922-.133 1.777-.399 2.566a5.98 5.98 0 0 1-1.172 2.051 5.197 5.197 0 0 1-1.874 1.348c-.743.32-1.594.48-2.555.48-.961 0-1.817-.16-2.567-.48a5.31 5.31 0 0 1-1.886-1.348 6.083 6.083 0 0 1-1.16-2.05 7.998 7.998 0 0 1-.399-2.567Zm3.375-.247v.246c0 .531.047 1.027.14 1.488.094.461.243.867.446 1.22.21.343.484.612.82.808.336.195.746.293 1.23.293.47 0 .872-.098 1.208-.293.336-.196.605-.465.808-.809.203-.351.352-.758.446-1.219.101-.46.152-.957.152-1.488v-.246c0-.516-.05-1-.152-1.453a3.836 3.836 0 0 0-.457-1.219 2.27 2.27 0 0 0-.809-.844c-.336-.203-.742-.304-1.219-.304-.476 0-.883.101-1.218.304a2.398 2.398 0 0 0-.809.844 4.021 4.021 0 0 0-.445 1.219c-.094.453-.14.937-.14 1.453Zm10.172.246v-.246c0-.93.133-1.785.398-2.566a5.937 5.937 0 0 1 1.16-2.051 5.199 5.199 0 0 1 1.875-1.348c.743-.328 1.594-.492 2.555-.492.961 0 1.817.164 2.567.492.75.32 1.378.77 1.886 1.348a5.837 5.837 0 0 1 1.172 2.05c.266.782.399 1.637.399 2.567v.246c0 .922-.133 1.777-.399 2.566a5.979 5.979 0 0 1-1.172 2.051 5.197 5.197 0 0 1-1.875 1.348c-.742.32-1.593.48-2.554.48-.961 0-1.817-.16-2.567-.48a5.311 5.311 0 0 1-1.887-1.348 6.084 6.084 0 0 1-1.16-2.05 7.998 7.998 0 0 1-.398-2.567Zm3.375-.246v.246c0 .531.047 1.027.14 1.488.094.461.243.867.446 1.22.21.343.484.612.82.808.336.195.746.293 1.23.293.47 0 .872-.098 1.208-.293a2.23 2.23 0 0 0 .808-.809c.203-.351.352-.758.446-1.219.101-.46.152-.957.152-1.488v-.246c0-.516-.05-1-.152-1.453a3.838 3.838 0 0 0-.457-1.219 2.27 2.27 0 0 0-.809-.844c-.336-.203-.742-.304-1.219-.304-.476 0-.883.101-1.218.304a2.397 2.397 0 0 0-.81.844 4.021 4.021 0 0 0-.444 1.219c-.094.453-.141.937-.141 1.453Zm18.2 3.691V4.5h3.398v18h-3.059l-.34-2.766Zm-8.017-3.422v-.246c0-.968.11-1.847.329-2.636.218-.797.539-1.48.96-2.051a4.378 4.378 0 0 1 1.56-1.324c.616-.313 1.32-.47 2.109-.47.742 0 1.39.157 1.945.47a4.155 4.155 0 0 1 1.43 1.336c.398.57.718 1.246.96 2.027.243.773.419 1.621.528 2.543v.539a13.54 13.54 0 0 1-.528 2.46 7.372 7.372 0 0 1-.96 1.993c-.391.563-.868 1-1.43 1.313-.563.312-1.219.468-1.969.468-.789 0-1.492-.16-2.11-.48a4.477 4.477 0 0 1-1.546-1.348c-.414-.578-.73-1.258-.95-2.039a9.447 9.447 0 0 1-.328-2.555Zm3.375-.246v.247c0 .523.04 1.011.118 1.464.086.453.222.856.41 1.207.195.344.445.614.75.809.312.188.691.281 1.137.281.578 0 1.054-.129 1.43-.387.374-.265.66-.628.855-1.09.203-.46.32-.992.351-1.593v-1.535a5.528 5.528 0 0 0-.21-1.324 2.884 2.884 0 0 0-.493-1.02 2.171 2.171 0 0 0-.797-.656c-.312-.156-.683-.235-1.113-.235-.438 0-.813.102-1.125.305a2.232 2.232 0 0 0-.762.809c-.187.343-.328.75-.422 1.218-.085.461-.129.961-.129 1.5Zm22.489 6.668c-.985 0-1.867-.156-2.649-.468a5.817 5.817 0 0 1-1.992-1.325A5.884 5.884 0 0 1 97 18.984a6.589 6.589 0 0 1-.434-2.39v-.469c0-.96.137-1.84.41-2.637a6.2 6.2 0 0 1 1.172-2.074 5.15 5.15 0 0 1 1.875-1.348c.735-.32 1.563-.48 2.485-.48.898 0 1.695.148 2.39.445a4.684 4.684 0 0 1 1.747 1.266c.476.547.835 1.203 1.078 1.969.242.757.363 1.601.363 2.53v1.407H98.008v-2.25h6.762v-.258c0-.468-.086-.886-.258-1.254a1.99 1.99 0 0 0-.75-.89c-.336-.219-.766-.328-1.289-.328-.446 0-.828.097-1.149.293-.32.195-.582.468-.785.82a4.457 4.457 0 0 0-.445 1.242c-.094.469-.14.985-.14 1.547v.469c0 .508.069.976.21 1.406.148.43.356.8.621 1.113.274.313.602.555.985.727.39.172.832.258 1.324.258.609 0 1.176-.117 1.699-.352a3.682 3.682 0 0 0 1.371-1.09l1.641 1.782c-.266.382-.629.75-1.09 1.101-.453.352-1 .64-1.641.867-.64.219-1.371.328-2.191.328Zm9.844-12.914 2.097 3.856 2.156-3.856h3.598l-3.586 6.2 3.75 6.48h-3.609l-2.285-4.078-2.286 4.078h-3.609l3.75-6.48-3.586-6.2h3.61Zm12.867 2.438v15.117h-3.375V9.82h3.129l.246 2.438Zm8.027 3.762v.246c0 .922-.109 1.777-.328 2.566-.211.79-.523 1.477-.938 2.063a4.45 4.45 0 0 1-1.546 1.359c-.61.32-1.313.48-2.11.48-.773 0-1.445-.156-2.015-.468a4.198 4.198 0 0 1-1.442-1.313 7.61 7.61 0 0 1-.926-1.98 15.676 15.676 0 0 1-.539-2.414v-.645c.125-.922.305-1.766.539-2.531.235-.774.543-1.442.926-2.004a4.193 4.193 0 0 1 1.43-1.324c.57-.313 1.238-.47 2.004-.47.804 0 1.512.153 2.121.458a4.172 4.172 0 0 1 1.547 1.313c.422.57.738 1.25.949 2.039.219.789.328 1.664.328 2.625Zm-3.387.246v-.246c0-.54-.046-1.036-.14-1.489a3.87 3.87 0 0 0-.422-1.207 2.059 2.059 0 0 0-.75-.797c-.305-.195-.676-.293-1.113-.293-.461 0-.856.075-1.184.223-.32.148-.582.363-.785.645a2.978 2.978 0 0 0-.457 1.007c-.102.391-.164.832-.188 1.325v1.629a5.27 5.27 0 0 0 .328 1.558c.18.453.457.813.832 1.078.375.266.868.399 1.477.399.445 0 .82-.098 1.125-.293.305-.203.551-.48.738-.832a3.78 3.78 0 0 0 .41-1.22c.086-.46.129-.956.129-1.487ZM139.281 4.5v18h-3.386v-18h3.386Zm2.25 11.79v-.247c0-.93.133-1.785.399-2.566a5.924 5.924 0 0 1 1.16-2.051 5.202 5.202 0 0 1 1.875-1.348c.742-.328 1.594-.492 2.555-.492.96 0 1.816.164 2.566.492.75.32 1.379.77 1.887 1.348a5.854 5.854 0 0 1 1.172 2.05c.265.782.398 1.637.398 2.567v.246c0 .922-.133 1.777-.398 2.566a5.997 5.997 0 0 1-1.172 2.051 5.2 5.2 0 0 1-1.875 1.348c-.743.32-1.594.48-2.555.48-.961 0-1.816-.16-2.566-.48a5.298 5.298 0 0 1-1.887-1.348 6.07 6.07 0 0 1-1.16-2.05 7.987 7.987 0 0 1-.399-2.567Zm3.375-.247v.246c0 .531.047 1.027.141 1.488.094.461.242.867.445 1.22.211.343.485.612.82.808.336.195.747.293 1.231.293.469 0 .871-.098 1.207-.293.336-.196.605-.465.809-.809.203-.351.351-.758.445-1.219.101-.46.152-.957.152-1.488v-.246c0-.516-.051-1-.152-1.453a3.84 3.84 0 0 0-.457-1.219 2.27 2.27 0 0 0-.809-.844c-.336-.203-.742-.304-1.218-.304-.477 0-.883.101-1.219.304a2.4 2.4 0 0 0-.809.844 4.032 4.032 0 0 0-.445 1.219 7.148 7.148 0 0 0-.141 1.453Zm14.086-3.457V22.5h-3.375V9.82h3.176l.199 2.766Zm3.82-2.848-.058 3.13a8.134 8.134 0 0 0-.598-.06 6.07 6.07 0 0 0-.621-.035c-.476 0-.89.063-1.242.188a2.21 2.21 0 0 0-.867.527c-.227.235-.399.52-.516.856a4.194 4.194 0 0 0-.187 1.148l-.68-.21c0-.821.082-1.575.246-2.262.164-.696.402-1.301.715-1.817.32-.515.711-.914 1.172-1.195.461-.281.988-.422 1.582-.422.187 0 .379.016.574.047.195.023.356.058.48.105Zm7.196 12.996c-.985 0-1.867-.156-2.649-.468a5.818 5.818 0 0 1-1.992-1.325 5.884 5.884 0 0 1-1.242-1.957 6.591 6.591 0 0 1-.434-2.39v-.469c0-.96.137-1.84.411-2.637a6.205 6.205 0 0 1 1.171-2.074 5.153 5.153 0 0 1 1.875-1.348c.735-.32 1.563-.48 2.485-.48.898 0 1.695.148 2.39.445a4.684 4.684 0 0 1 1.747 1.266c.476.547.835 1.203 1.078 1.969.242.757.363 1.601.363 2.53v1.407h-10.078v-2.25h6.762v-.258c0-.468-.086-.886-.258-1.254a1.99 1.99 0 0 0-.75-.89c-.336-.219-.766-.328-1.289-.328-.446 0-.828.097-1.149.293-.32.195-.582.468-.785.82a4.457 4.457 0 0 0-.445 1.242 7.882 7.882 0 0 0-.141 1.547v.469c0 .508.07.976.211 1.406.149.43.356.8.621 1.113.274.313.602.555.985.727.39.172.832.258 1.324.258.609 0 1.176-.117 1.699-.352a3.682 3.682 0 0 0 1.371-1.09l1.641 1.782c-.266.382-.629.75-1.09 1.101-.453.352-1 .64-1.641.867-.64.219-1.371.328-2.191.328Zm10.5-10.148V22.5h-3.375V9.82h3.176l.199 2.766Zm3.82-2.848-.058 3.13a8.247 8.247 0 0 0-.598-.06 6.101 6.101 0 0 0-.621-.035c-.477 0-.891.063-1.242.188a2.222 2.222 0 0 0-.868.527c-.226.235-.398.52-.515.856-.11.336-.172.719-.188 1.148l-.679-.21c0-.821.082-1.575.246-2.262.164-.696.402-1.301.715-1.817.32-.515.71-.914 1.171-1.195.461-.281.989-.422 1.582-.422.188 0 .379.016.575.047.195.023.355.058.48.105Z"/><path fill="#82F3FF" d="M155.104 35.416v-3.264c0-.25-.051-.466-.153-.65a.994.994 0 0 0-.445-.434c-.199-.101-.445-.152-.738-.152-.274 0-.514.047-.721.14a1.264 1.264 0 0 0-.481.37.81.81 0 0 0-.17.492h-1.084c0-.227.059-.451.176-.674.117-.223.285-.424.504-.603a2.52 2.52 0 0 1 .797-.434c.313-.11.66-.164 1.043-.164.461 0 .867.078 1.219.234.355.157.633.393.832.71.203.312.305.704.305 1.177v2.953c0 .211.017.436.052.674.039.238.096.443.17.615v.094h-1.131a2.091 2.091 0 0 1-.129-.498 4.045 4.045 0 0 1-.046-.586Zm.187-2.76.012.762h-1.096c-.309 0-.584.025-.826.076-.242.047-.445.12-.61.217-.164.098-.289.22-.375.37a.987.987 0 0 0-.128.509c0 .2.044.38.134.545.09.164.225.295.405.392.183.094.408.141.673.141.332 0 .625-.07.879-.211.254-.14.455-.313.604-.516.152-.203.234-.4.246-.591l.463.521a1.57 1.57 0 0 1-.223.545 2.605 2.605 0 0 1-1.201 1.025 2.327 2.327 0 0 1-.926.176 2.43 2.43 0 0 1-1.131-.252 1.937 1.937 0 0 1-.75-.674 1.79 1.79 0 0 1-.263-.955c0-.34.066-.638.199-.896.133-.262.324-.479.574-.65.25-.176.551-.31.903-.399.351-.09.744-.135 1.177-.135h1.26Zm6.598 2.614V27.5h1.09v9h-.997l-.093-1.23Zm-4.266-1.87v-.123c0-.484.059-.924.176-1.318.121-.398.291-.74.51-1.025.222-.286.486-.504.791-.657a2.248 2.248 0 0 1 1.031-.234c.398 0 .746.07 1.043.21.301.138.555.339.762.604.21.262.376.579.498.95.121.37.205.79.252 1.26v.538a5.523 5.523 0 0 1-.252 1.254 2.994 2.994 0 0 1-.498.95 2.083 2.083 0 0 1-.762.603 2.531 2.531 0 0 1-1.055.205c-.371 0-.711-.08-1.019-.24a2.397 2.397 0 0 1-.791-.674 3.276 3.276 0 0 1-.51-1.02 4.496 4.496 0 0 1-.176-1.283Zm1.09-.123v.123c0 .317.031.614.094.891.066.277.168.522.304.732.137.211.311.377.522.498.211.118.463.176.756.176.359 0 .654-.076.884-.228.235-.153.422-.354.563-.604.141-.25.25-.521.328-.814v-1.412a3.125 3.125 0 0 0-.205-.621 1.907 1.907 0 0 0-.34-.54 1.474 1.474 0 0 0-.51-.38 1.648 1.648 0 0 0-.709-.141 1.5 1.5 0 0 0-.767.188c-.211.12-.385.289-.522.503a2.338 2.338 0 0 0-.304.739 4.015 4.015 0 0 0-.094.89Zm7.031-1.857v5.08h-1.09v-6.34h1.032l.058 1.26Zm-.223 1.67-.503-.018c.003-.433.06-.834.17-1.2a2.84 2.84 0 0 1 .486-.968c.215-.273.482-.484.803-.633.32-.152.691-.228 1.113-.228.297 0 .57.043.82.129.25.082.467.213.651.392.183.18.326.41.427.692.102.281.153.621.153 1.02V36.5h-1.084v-4.172c0-.332-.057-.598-.17-.797a.975.975 0 0 0-.469-.433 1.69 1.69 0 0 0-.715-.141c-.32 0-.588.057-.803.17a1.36 1.36 0 0 0-.515.469c-.129.199-.223.427-.281.685a3.813 3.813 0 0 0-.083.809Zm4.108-.598-.727.223c.004-.348.061-.682.17-1.002.114-.32.276-.606.487-.856a2.29 2.29 0 0 1 .791-.591 2.47 2.47 0 0 1 1.072-.223c.34 0 .64.045.902.135.266.09.488.228.668.416.184.183.322.42.416.709.094.289.141.633.141 1.031V36.5h-1.09v-4.178c0-.355-.057-.63-.17-.826a.885.885 0 0 0-.469-.416 1.87 1.87 0 0 0-.715-.123c-.238 0-.449.041-.632.123a1.305 1.305 0 0 0-.463.34c-.125.14-.221.303-.287.486a1.793 1.793 0 0 0-.094.586Zm6.738-2.332v6.34h-1.09v-6.34h1.09Zm-1.172-1.681c0-.176.053-.325.159-.446.109-.12.269-.181.48-.181.207 0 .365.06.475.181.113.121.17.27.17.445a.614.614 0 0 1-.17.434c-.11.117-.268.176-.475.176-.211 0-.371-.059-.48-.176a.636.636 0 0 1-.159-.433Zm3.996 3.035V36.5h-1.084v-6.34h1.026l.058 1.354Zm-.257 1.576-.452-.018c.004-.433.069-.834.194-1.2.125-.372.301-.694.527-.968a2.35 2.35 0 0 1 1.858-.861c.312 0 .593.043.843.129.25.082.463.215.639.398.18.184.316.422.41.715.094.29.141.643.141 1.06V36.5h-1.09v-4.166c0-.332-.049-.598-.147-.797a.898.898 0 0 0-.427-.44 1.537 1.537 0 0 0-.692-.14c-.269 0-.515.057-.738.17a1.76 1.76 0 0 0-.568.469c-.157.199-.28.427-.37.685a2.531 2.531 0 0 0-.128.809Z"/><path fill="#065E7C" d="M15.54.5 28.53 8v15l-12.99 7.5L2.548 23V8L15.539.5Z"/></g><defs><clipPath id="a"><path fill="#fff" d="M.54.5h197v39H.54z"/></clipPath></defs></svg>
