<svg xmlns="http://www.w3.org/2000/svg" width="182" height="31" fill="none"><path fill="#fff" d="M43.613 22.366h-3.398V8.562c0-.961.187-1.77.562-2.426a3.678 3.678 0 0 1 1.606-1.5c.695-.344 1.52-.516 2.472-.516.313 0 .614.024.903.07.289.04.57.09.844.153l-.036 2.543a2.932 2.932 0 0 0-.468-.082 6.147 6.147 0 0 0-.575-.024c-.406 0-.754.07-1.043.211a1.408 1.408 0 0 0-.644.598c-.148.266-.223.59-.223.973v13.804Zm2.532-12.68v2.391h-7.817v-2.39h7.816Zm1.23 6.47v-.247c0-.93.133-1.785.398-2.566a5.939 5.939 0 0 1 1.16-2.05 5.198 5.198 0 0 1 1.876-1.348c.742-.329 1.593-.493 2.554-.493.961 0 1.817.164 2.567.493.75.32 1.379.77 1.886 1.347a5.838 5.838 0 0 1 1.172 2.051c.266.781.399 1.637.399 2.566v.246c0 .922-.133 1.778-.399 2.567a5.98 5.98 0 0 1-1.172 2.05 5.197 5.197 0 0 1-1.875 1.348c-.742.32-1.593.48-2.554.48-.961 0-1.817-.16-2.567-.48a5.31 5.31 0 0 1-1.886-1.347 6.086 6.086 0 0 1-1.16-2.051 7.998 7.998 0 0 1-.399-2.567Zm3.375-.247v.246c0 .532.047 1.028.14 1.489.094.46.243.867.446 1.219.21.343.484.613.82.808.336.195.746.293 1.23.293.47 0 .872-.098 1.208-.293a2.23 2.23 0 0 0 .808-.808c.203-.352.352-.758.446-1.22.101-.46.152-.956.152-1.488v-.246c0-.515-.05-1-.152-1.453a3.836 3.836 0 0 0-.457-1.218 2.27 2.27 0 0 0-.809-.844c-.336-.203-.742-.305-1.219-.305-.476 0-.883.102-1.218.305a2.399 2.399 0 0 0-.81.844 4.024 4.024 0 0 0-.444 1.218 7.17 7.17 0 0 0-.141 1.453Zm10.172.246v-.246c0-.93.133-1.785.398-2.566a5.937 5.937 0 0 1 1.16-2.05 5.198 5.198 0 0 1 1.876-1.348c.742-.329 1.593-.493 2.554-.493.961 0 1.817.164 2.567.493.75.32 1.379.77 1.886 1.347a5.84 5.84 0 0 1 1.172 2.051c.266.781.399 1.637.399 2.566v.246c0 .922-.133 1.778-.399 2.567a5.982 5.982 0 0 1-1.172 2.05 5.197 5.197 0 0 1-1.875 1.348c-.742.32-1.594.48-2.554.48-.961 0-1.817-.16-2.567-.48a5.31 5.31 0 0 1-1.887-1.347 6.084 6.084 0 0 1-1.16-2.051 7.998 7.998 0 0 1-.398-2.567Zm3.375-.246v.246c0 .532.047 1.028.14 1.489.094.46.243.867.446 1.219.21.343.484.613.82.808.336.195.746.293 1.23.293.47 0 .872-.098 1.208-.293.336-.195.605-.465.808-.808.203-.352.352-.758.445-1.22.102-.46.153-.956.153-1.488v-.246c0-.515-.05-1-.153-1.453a3.836 3.836 0 0 0-.457-1.218 2.27 2.27 0 0 0-.808-.844c-.336-.203-.742-.305-1.219-.305-.476 0-.883.102-1.219.305a2.399 2.399 0 0 0-.808.844 4.021 4.021 0 0 0-.445 1.218 7.17 7.17 0 0 0-.141 1.453Zm18.2 3.692V4.366h3.397v18h-3.058l-.34-2.765Zm-8.016-3.422v-.246c0-.969.109-1.848.328-2.637.218-.797.539-1.48.96-2.05a4.378 4.378 0 0 1 1.56-1.325c.616-.312 1.32-.469 2.109-.469.742 0 1.39.157 1.945.47.562.312 1.039.757 1.43 1.335.398.57.718 1.246.96 2.027.243.774.418 1.621.528 2.543v.54a13.55 13.55 0 0 1-.528 2.46 7.374 7.374 0 0 1-.96 1.992c-.391.563-.868 1-1.43 1.313-.563.313-1.219.469-1.969.469-.789 0-1.492-.16-2.11-.48a4.477 4.477 0 0 1-1.546-1.348c-.414-.578-.73-1.258-.95-2.04a9.447 9.447 0 0 1-.328-2.554Zm3.375-.246v.246c0 .523.038 1.012.117 1.465.086.453.222.855.41 1.207.195.344.445.613.75.808.312.188.691.282 1.136.282.579 0 1.055-.13 1.43-.387a2.49 2.49 0 0 0 .856-1.09c.203-.46.32-.992.351-1.594v-1.535a5.527 5.527 0 0 0-.21-1.324 2.882 2.882 0 0 0-.493-1.02 2.17 2.17 0 0 0-.797-.656c-.312-.156-.683-.234-1.113-.234-.438 0-.813.101-1.125.304a2.234 2.234 0 0 0-.762.81c-.187.343-.328.75-.422 1.218-.086.46-.128.96-.128 1.5Zm22.488 6.668c-.985 0-1.867-.156-2.649-.469a5.816 5.816 0 0 1-1.992-1.324 5.886 5.886 0 0 1-1.242-1.957 6.59 6.59 0 0 1-.434-2.39v-.47c0-.96.137-1.84.41-2.636a6.2 6.2 0 0 1 1.172-2.075 5.147 5.147 0 0 1 1.875-1.347c.735-.32 1.563-.48 2.485-.48.898 0 1.695.148 2.39.445a4.672 4.672 0 0 1 1.746 1.265c.477.547.836 1.203 1.079 1.969.242.758.363 1.602.363 2.531v1.407H95.469v-2.25h6.761v-.258c0-.469-.085-.887-.257-1.254a1.99 1.99 0 0 0-.75-.89c-.336-.22-.766-.329-1.29-.329-.445 0-.828.098-1.148.293-.32.195-.582.469-.785.82a4.464 4.464 0 0 0-.445 1.242c-.094.47-.14.985-.14 1.547v.47c0 .507.07.976.21 1.405.148.43.356.801.621 1.114.273.312.602.554.985.726.39.172.831.258 1.324.258.609 0 1.175-.117 1.699-.351a3.682 3.682 0 0 0 1.371-1.09l1.641 1.78c-.266.384-.629.75-1.09 1.102-.453.352-1 .641-1.641.868-.64.218-1.371.328-2.191.328Zm9.844-12.914 2.097 3.855 2.156-3.855h3.598l-3.586 6.199 3.75 6.48h-3.609l-2.285-4.078-2.286 4.078h-3.609l3.75-6.48-3.586-6.2h3.61Zm12.867 2.437v15.117h-3.375V9.687h3.129l.246 2.437Zm8.027 3.762v.246c0 .922-.109 1.777-.328 2.566-.211.79-.524 1.477-.938 2.063a4.45 4.45 0 0 1-1.546 1.36c-.61.32-1.313.48-2.11.48-.773 0-1.445-.156-2.015-.469a4.198 4.198 0 0 1-1.442-1.313 7.61 7.61 0 0 1-.926-1.98 15.676 15.676 0 0 1-.539-2.414v-.645c.125-.921.305-1.765.539-2.53.235-.774.543-1.442.926-2.005a4.194 4.194 0 0 1 1.43-1.324c.57-.312 1.238-.469 2.004-.469.804 0 1.511.153 2.121.457a4.172 4.172 0 0 1 1.547 1.313c.422.57.738 1.25.949 2.039.219.789.328 1.664.328 2.625Zm-3.387.246v-.246a7.41 7.41 0 0 0-.14-1.488 3.87 3.87 0 0 0-.422-1.207 2.059 2.059 0 0 0-.75-.797c-.305-.196-.676-.293-1.113-.293-.461 0-.856.074-1.184.222-.32.149-.582.364-.785.645a2.977 2.977 0 0 0-.457 1.008c-.102.39-.164.832-.188 1.324v1.629a5.27 5.27 0 0 0 .328 1.559c.18.453.457.812.832 1.078.375.265.868.398 1.477.398.445 0 .82-.098 1.125-.293.305-.203.551-.48.738-.832a3.78 3.78 0 0 0 .41-1.219c.086-.46.129-.957.129-1.488Zm9.047-11.766v18h-3.387v-18h3.387Zm2.25 11.79v-.247c0-.93.133-1.785.399-2.566a5.924 5.924 0 0 1 1.16-2.05 5.202 5.202 0 0 1 1.875-1.348c.742-.329 1.594-.493 2.554-.493.961 0 1.817.164 2.567.493.75.32 1.379.77 1.887 1.347a5.837 5.837 0 0 1 1.171 2.051c.266.781.399 1.637.399 2.566v.246c0 .922-.133 1.778-.399 2.567a5.979 5.979 0 0 1-1.171 2.05 5.2 5.2 0 0 1-1.875 1.348c-.743.32-1.594.48-2.555.48-.961 0-1.816-.16-2.566-.48a5.298 5.298 0 0 1-1.887-1.347 6.07 6.07 0 0 1-1.16-2.051 7.987 7.987 0 0 1-.399-2.567Zm3.375-.247v.246c0 .532.047 1.028.141 1.489.094.46.242.867.445 1.219.211.343.485.613.82.808.336.195.747.293 1.231.293.469 0 .871-.098 1.207-.293.336-.195.605-.465.809-.808.203-.352.351-.758.445-1.22.101-.46.152-.956.152-1.488v-.246c0-.515-.051-1-.152-1.453a3.84 3.84 0 0 0-.457-1.218 2.27 2.27 0 0 0-.809-.844c-.336-.203-.742-.305-1.219-.305-.476 0-.882.102-1.218.305a2.4 2.4 0 0 0-.809.844 4.032 4.032 0 0 0-.445 1.218 7.148 7.148 0 0 0-.141 1.453Zm14.086-3.457v9.914h-3.375V9.686h3.176l.199 2.766Zm3.82-2.847-.058 3.129a8.08 8.08 0 0 0-.598-.059 6.07 6.07 0 0 0-.621-.035c-.476 0-.891.062-1.242.187a2.21 2.21 0 0 0-.867.528c-.227.234-.399.52-.516.855a4.195 4.195 0 0 0-.187 1.149l-.68-.211c0-.82.082-1.575.246-2.262.164-.695.402-1.3.715-1.816.32-.516.711-.915 1.172-1.196.461-.281.988-.422 1.582-.422.187 0 .379.016.574.047.195.024.355.059.48.106Zm7.196 12.996c-.985 0-1.867-.156-2.649-.469a5.818 5.818 0 0 1-1.992-1.324 5.884 5.884 0 0 1-1.242-1.957 6.591 6.591 0 0 1-.434-2.39v-.47c0-.96.137-1.84.41-2.636a6.224 6.224 0 0 1 1.172-2.075 5.153 5.153 0 0 1 1.875-1.347c.735-.32 1.563-.48 2.485-.48.898 0 1.695.148 2.39.445a4.672 4.672 0 0 1 1.746 1.265c.477.547.836 1.203 1.079 1.969.242.758.363 1.602.363 2.531v1.407h-10.078v-2.25h6.761v-.258c0-.469-.085-.887-.257-1.254a1.99 1.99 0 0 0-.75-.89c-.336-.22-.766-.329-1.289-.329-.446 0-.829.098-1.149.293-.32.195-.582.469-.785.82a4.457 4.457 0 0 0-.445 1.242 7.882 7.882 0 0 0-.141 1.547v.47c0 .507.07.976.211 1.405.148.43.355.801.621 1.114.274.312.602.554.984.726.391.172.833.258 1.325.258.609 0 1.175-.117 1.699-.351a3.682 3.682 0 0 0 1.371-1.09l1.641 1.78c-.266.384-.629.75-1.09 1.102-.453.352-1 .641-1.641.868-.64.218-1.371.328-2.191.328Zm10.5-10.149v9.914h-3.375V9.686h3.176l.199 2.766Zm3.82-2.847-.059 3.129a8.102 8.102 0 0 0-.597-.059 6.101 6.101 0 0 0-.621-.035c-.477 0-.891.062-1.242.187a2.222 2.222 0 0 0-.868.528c-.226.234-.398.52-.515.855-.11.336-.172.719-.188 1.149l-.679-.211c0-.82.082-1.575.246-2.262.164-.695.402-1.3.714-1.816.321-.516.711-.915 1.172-1.196.461-.281.989-.422 1.582-.422.188 0 .379.016.575.047.195.024.355.059.48.106Z"/><path fill="#065E7C" d="m13 .366 12.99 7.5v15L13 30.366l-12.99-7.5v-15L13 .366Z"/></svg>
