<svg xmlns="http://www.w3.org/2000/svg" width="186" height="30" fill="none"><path fill="#4D585E" d="M46.173 22.18h-3.398V8.375c0-.96.187-1.77.562-2.426a3.678 3.678 0 0 1 1.606-1.5c.695-.343 1.52-.515 2.473-.515.312 0 .613.023.902.07.289.04.57.09.844.152L49.127 6.7a2.933 2.933 0 0 0-.47-.082 6.14 6.14 0 0 0-.573-.023c-.407 0-.754.07-1.044.21a1.407 1.407 0 0 0-.644.598c-.148.266-.223.59-.223.973V22.18ZM48.705 9.5v2.39h-7.817V9.5h7.817Zm1.23 6.469v-.246c0-.93.133-1.785.398-2.567a5.936 5.936 0 0 1 1.16-2.05 5.198 5.198 0 0 1 1.876-1.348c.742-.328 1.593-.492 2.554-.492.961 0 1.817.164 2.567.492.75.32 1.379.77 1.886 1.348a5.838 5.838 0 0 1 1.172 2.05c.266.782.399 1.637.399 2.567v.246c0 .922-.133 1.777-.399 2.566a5.982 5.982 0 0 1-1.172 2.051 5.198 5.198 0 0 1-1.874 1.348c-.743.32-1.594.48-2.555.48-.961 0-1.817-.16-2.567-.48a5.31 5.31 0 0 1-1.886-1.348 6.084 6.084 0 0 1-1.16-2.05 7.998 7.998 0 0 1-.399-2.567Zm3.375-.246v.246c0 .531.047 1.027.14 1.488.094.461.243.867.446 1.219.21.344.484.613.82.809.336.195.746.293 1.23.293.47 0 .872-.098 1.208-.293.336-.196.605-.465.808-.81.203-.35.352-.757.446-1.218.101-.46.152-.957.152-1.488v-.246c0-.516-.05-1-.152-1.453a3.835 3.835 0 0 0-.457-1.22 2.27 2.27 0 0 0-.809-.843c-.336-.203-.742-.305-1.219-.305-.476 0-.883.102-1.218.305a2.397 2.397 0 0 0-.809.844 4.021 4.021 0 0 0-.445 1.219c-.094.453-.14.937-.14 1.453Zm10.172.246v-.246c0-.93.133-1.785.398-2.567a5.937 5.937 0 0 1 1.16-2.05 5.198 5.198 0 0 1 1.875-1.348c.743-.328 1.594-.492 2.555-.492.961 0 1.817.164 2.567.492.75.32 1.378.77 1.886 1.348a5.837 5.837 0 0 1 1.172 2.05c.266.782.399 1.637.399 2.567v.246c0 .922-.133 1.777-.399 2.566a5.98 5.98 0 0 1-1.172 2.051 5.198 5.198 0 0 1-1.875 1.348c-.742.32-1.593.48-2.554.48-.961 0-1.817-.16-2.567-.48a5.312 5.312 0 0 1-1.887-1.348 6.085 6.085 0 0 1-1.16-2.05 7.995 7.995 0 0 1-.398-2.567Zm3.375-.246v.246c0 .531.047 1.027.14 1.488.094.461.243.867.446 1.219.21.344.484.613.82.809.336.195.746.293 1.23.293.47 0 .872-.098 1.208-.293.336-.196.605-.465.808-.81.203-.35.352-.757.446-1.218.101-.46.152-.957.152-1.488v-.246c0-.516-.05-1-.152-1.453a3.838 3.838 0 0 0-.457-1.22 2.27 2.27 0 0 0-.809-.843c-.336-.203-.742-.305-1.219-.305-.476 0-.883.102-1.219.305a2.396 2.396 0 0 0-.808.844 4.018 4.018 0 0 0-.445 1.219c-.094.453-.141.937-.141 1.453Zm18.2 3.691V4.18h3.398v18h-3.059l-.34-2.766Zm-8.017-3.422v-.246c0-.969.11-1.847.329-2.636.218-.797.539-1.481.96-2.051a4.378 4.378 0 0 1 1.56-1.324c.616-.313 1.32-.47 2.109-.47.742 0 1.39.157 1.945.47a4.155 4.155 0 0 1 1.43 1.335c.398.57.718 1.246.96 2.028.243.773.418 1.62.528 2.543v.539a13.54 13.54 0 0 1-.528 2.46 7.372 7.372 0 0 1-.96 1.993c-.391.562-.868 1-1.43 1.312-.563.313-1.219.47-1.969.47-.789 0-1.492-.161-2.11-.481a4.477 4.477 0 0 1-1.546-1.348c-.414-.578-.73-1.258-.95-2.039a9.447 9.447 0 0 1-.328-2.555Zm3.375-.246v.246c0 .524.04 1.012.118 1.465.086.453.222.856.41 1.207.195.344.445.613.75.809.312.187.691.281 1.137.281.578 0 1.054-.129 1.43-.387a2.49 2.49 0 0 0 .855-1.09c.203-.46.32-.992.351-1.593v-1.535a5.528 5.528 0 0 0-.21-1.325 2.885 2.885 0 0 0-.493-1.02 2.171 2.171 0 0 0-.797-.655c-.312-.157-.683-.235-1.113-.235-.438 0-.813.102-1.125.305a2.232 2.232 0 0 0-.762.809c-.187.343-.328.75-.422 1.218a8.196 8.196 0 0 0-.129 1.5Zm22.489 6.668c-.985 0-1.867-.156-2.649-.469a5.817 5.817 0 0 1-1.992-1.324 5.884 5.884 0 0 1-1.242-1.957 6.589 6.589 0 0 1-.434-2.39v-.47c0-.96.137-1.839.41-2.636a6.2 6.2 0 0 1 1.172-2.074 5.15 5.15 0 0 1 1.875-1.348c.735-.32 1.563-.48 2.485-.48.898 0 1.695.148 2.39.445a4.684 4.684 0 0 1 1.747 1.266c.476.547.835 1.203 1.078 1.968.242.758.363 1.602.363 2.532v1.406H98.029v-2.25h6.762v-.258c0-.469-.086-.887-.258-1.254a1.99 1.99 0 0 0-.75-.89c-.336-.22-.766-.329-1.289-.329-.446 0-.828.098-1.149.293-.32.196-.582.47-.785.82a4.457 4.457 0 0 0-.445 1.243c-.094.469-.14.984-.14 1.547v.469c0 .507.069.976.21 1.406.148.43.356.8.621 1.113.274.313.602.555.985.727.39.172.832.258 1.324.258.609 0 1.176-.118 1.699-.352a3.683 3.683 0 0 0 1.371-1.09l1.641 1.781c-.266.383-.629.75-1.09 1.102-.453.351-1 .64-1.641.867-.64.219-1.371.328-2.191.328ZM112.748 9.5l2.097 3.856 2.156-3.856h3.598l-3.586 6.2 3.75 6.48h-3.609l-2.285-4.078-2.286 4.078h-3.609l3.75-6.48-3.586-6.2h3.61Zm12.867 2.438v15.117h-3.375V9.5h3.129l.246 2.438Zm8.027 3.761v.246c0 .922-.109 1.778-.328 2.567-.211.789-.523 1.476-.938 2.062a4.45 4.45 0 0 1-1.546 1.36c-.61.32-1.313.48-2.11.48-.773 0-1.445-.156-2.015-.469a4.198 4.198 0 0 1-1.442-1.312 7.61 7.61 0 0 1-.926-1.98 15.676 15.676 0 0 1-.539-2.415v-.644c.125-.922.305-1.766.539-2.531.235-.774.543-1.442.926-2.004a4.193 4.193 0 0 1 1.43-1.324c.57-.313 1.238-.47 2.004-.47.804 0 1.511.153 2.121.458a4.172 4.172 0 0 1 1.547 1.312c.422.57.738 1.25.949 2.04.219.788.328 1.663.328 2.624Zm-3.387.246V15.7c0-.539-.047-1.035-.14-1.488a3.87 3.87 0 0 0-.422-1.207 2.059 2.059 0 0 0-.75-.797c-.305-.195-.676-.293-1.113-.293-.461 0-.856.074-1.184.223-.32.148-.582.363-.785.644a2.978 2.978 0 0 0-.457 1.008c-.102.39-.164.832-.188 1.324v1.63a5.27 5.27 0 0 0 .328 1.558c.18.453.457.812.832 1.078.375.266.868.398 1.477.398.445 0 .82-.097 1.125-.293.305-.203.551-.48.738-.832.196-.351.332-.757.41-1.218.086-.461.129-.957.129-1.489Zm9.047-11.765v18h-3.386v-18h3.386Zm2.25 11.789v-.246c0-.93.133-1.785.399-2.567a5.924 5.924 0 0 1 1.16-2.05 5.202 5.202 0 0 1 1.875-1.348c.742-.328 1.594-.492 2.555-.492.96 0 1.816.164 2.566.492.75.32 1.379.77 1.887 1.348a5.854 5.854 0 0 1 1.172 2.05c.265.782.398 1.637.398 2.567v.246c0 .922-.133 1.777-.398 2.566a5.998 5.998 0 0 1-1.172 2.051 5.202 5.202 0 0 1-1.875 1.348c-.743.32-1.594.48-2.555.48-.961 0-1.816-.16-2.566-.48a5.3 5.3 0 0 1-1.887-1.348 6.072 6.072 0 0 1-1.16-2.05 7.987 7.987 0 0 1-.399-2.567Zm3.375-.246v.246c0 .531.047 1.027.141 1.488.094.461.242.867.445 1.219.211.344.485.613.82.809.336.195.747.293 1.231.293.469 0 .871-.098 1.207-.293.336-.196.605-.465.809-.81.203-.35.351-.757.445-1.218.101-.46.152-.957.152-1.488v-.246c0-.516-.051-1-.152-1.453a3.84 3.84 0 0 0-.457-1.22 2.269 2.269 0 0 0-.809-.843c-.336-.203-.742-.305-1.218-.305-.477 0-.883.102-1.219.305a2.4 2.4 0 0 0-.809.844 4.032 4.032 0 0 0-.445 1.219 7.147 7.147 0 0 0-.141 1.453Zm14.086-3.457v9.914h-3.375V9.5h3.176l.199 2.766Zm3.82-2.848-.058 3.129a8.134 8.134 0 0 0-.598-.059 6.07 6.07 0 0 0-.621-.035c-.476 0-.89.063-1.242.188a2.21 2.21 0 0 0-.867.527c-.227.235-.399.52-.516.856a4.194 4.194 0 0 0-.187 1.148l-.68-.21c0-.821.082-1.575.246-2.263.164-.695.402-1.3.715-1.816.32-.516.711-.914 1.172-1.195.461-.282.988-.422 1.582-.422.187 0 .379.015.574.047.195.023.355.058.48.105Zm7.196 12.996c-.985 0-1.867-.156-2.649-.469a5.818 5.818 0 0 1-1.992-1.324 5.884 5.884 0 0 1-1.242-1.957 6.591 6.591 0 0 1-.434-2.39v-.47c0-.96.137-1.839.411-2.636a6.205 6.205 0 0 1 1.171-2.074 5.153 5.153 0 0 1 1.875-1.348c.735-.32 1.563-.48 2.485-.48.898 0 1.695.148 2.39.445a4.684 4.684 0 0 1 1.747 1.266c.476.547.835 1.203 1.078 1.968.242.758.363 1.602.363 2.532v1.406h-10.078v-2.25h6.762v-.258c0-.469-.086-.887-.258-1.254a1.99 1.99 0 0 0-.75-.89c-.336-.22-.766-.329-1.289-.329-.446 0-.828.098-1.149.293-.32.196-.582.47-.785.82a4.457 4.457 0 0 0-.445 1.243 7.882 7.882 0 0 0-.141 1.547v.469c0 .507.07.976.211 1.406.148.43.356.8.621 1.113.274.313.602.555.985.727.39.172.832.258 1.324.258.609 0 1.176-.118 1.699-.352a3.683 3.683 0 0 0 1.371-1.09l1.641 1.781c-.266.383-.629.75-1.09 1.102-.453.351-1 .64-1.641.867-.64.219-1.371.328-2.191.328Zm10.5-10.148v9.914h-3.375V9.5h3.176l.199 2.766Zm3.82-2.848-.058 3.129a8.247 8.247 0 0 0-.598-.059 6.101 6.101 0 0 0-.621-.035c-.477 0-.891.063-1.242.188a2.222 2.222 0 0 0-.868.527c-.226.235-.398.52-.515.856-.11.336-.172.718-.188 1.148l-.679-.21c0-.821.082-1.575.246-2.263.164-.695.402-1.3.715-1.816.32-.516.71-.914 1.171-1.195.461-.282.989-.422 1.582-.422.188 0 .379.015.575.047.195.023.355.058.48.105ZM14.727.486l12.646 7.302V22.39l-12.646 7.301L2.081 22.39V7.788L14.727.486Z"/></svg>
